<?xml version="1.0"?>
<svg width="1300" height="1400">
<desc>GAP solution</desc>
<g transform="translate(50,50)">
<!-- Now Draw the main X and Y axis -->
<g style="stroke-width:5; stroke:black">
<!-- X Axis -->
<path d="M 0 1150 L 1000 1150 Z"/>
<!-- Y Axis -->
<path d="M 0 0 L 0 1150 Z"/>
</g>
<rect x="3" y="50" width ="456" height="100" style="fill:rgb(74,129,247);" /> 
<rect x="459" y="50" width ="492" height="100" style="fill:rgb(141,233,355);" /> 
<rect x="3" y="160" width ="504" height="100" style="fill:rgb(74,129,247);" /> 
<rect x="507" y="160" width ="300" height="100" style="fill:rgb(141,233,355);" /> 
<rect x="3" y="270" width ="468" height="100" style="fill:rgb(74,129,247);" /> 
<rect x="471" y="270" width ="420" height="100" style="fill:rgb(141,233,355);" /> 
<rect x="3" y="380" width ="816" height="100" style="fill:rgb(74,129,247);" /> 
<rect x="819" y="380" width ="60" height="100" style="fill:rgb(141,233,355);" /> 
<rect x="3" y="490" width ="696" height="100" style="fill:rgb(74,129,247);" /> 
<rect x="699" y="490" width ="108" height="100" style="fill:rgb(141,233,355);" /> 
<rect x="3" y="600" width ="192" height="100" style="fill:rgb(74,129,247);" /> 
<rect x="195" y="600" width ="744" height="100" style="fill:rgb(141,233,355);" /> 
<rect x="3" y="710" width ="444" height="100" style="fill:rgb(74,129,247);" /> 
<rect x="447" y="710" width ="432" height="100" style="fill:rgb(141,233,355);" /> 
<rect x="3" y="820" width ="624" height="100" style="fill:rgb(74,129,247);" /> 
<rect x="627" y="820" width ="192" height="100" style="fill:rgb(141,233,355);" /> 
<rect x="3" y="930" width ="216" height="100" style="fill:rgb(74,129,247);" /> 
<rect x="219" y="930" width ="660" height="100" style="fill:rgb(141,233,355);" /> 
<rect x="3" y="1040" width ="300" height="100" style="fill:rgb(74,129,247);" /> 
<rect x="303" y="1040" width ="528" height="100" style="fill:rgb(141,233,355);" /> 
</g>
</svg>